<svg xmlns="http://www.w3.org/2000/svg" viewBox="0 0 102.5 129.58"><defs><style>.cls-1{fill:#3e3630;stroke:#c5c7c9;stroke-miterlimit:10;stroke-width:0.21px;}</style></defs><g id="Layer_2" data-name="Layer 2"><g id="Layer_1-2" data-name="Layer 1"><g id="Spice_scissors"><path class="cls-1" d="M102.38,7.77c-2-5.65-8.5,9.62-13.73,5.54-7.46-4.57-18.92,3.94-20.09,12-1.29,5.67-3.18,11.11-7.81,15-5.28,4-11.46,6.2-17.43,9.25-2.19-4.08-4.52-8.12-6.59-12.3-6.1-12.51,7.76-20.7-3.48-33.07C30.05.54,25.39-.83,21.67.76c-10.16,4.64-6.2,20.78,2.44,25.11A15.84,15.84,0,0,1,31.94,37c1.36,7.93,2,16,2.89,24,.08.77-.55,1.61-.85,2.41l.05,0C23.12,78,13.24,93.29,3.11,108.42a30.84,30.84,0,0,0-2.89,6.34c-.3.8.06,1.84.11,2.77C12.77,105.65,23.75,88.8,36.05,74.85c1.53,18.55,3,36.55,4.5,54.62,1.93-.13,2.36-1.44,2.5-2.63a98.25,98.25,0,0,0,1-11.47c0-16.21-.15-32.41-.2-48.62a4.1,4.1,0,0,1,.78-2.37c4-5,8-10.11,12.24-14.91,1.62-1.82,4.06-2.88,6.06-4.38,6.17-3.66,5.55-9.17,14.13-8.83,9.27.48,17.93-8.6,16-17.88,0-.54.06-1.33.4-1.58C95.28,15.48,100.23,9.16,102.38,7.77Zm-83-1.25c-1.4,4.1-.6,8,1.19,11.81C18,15.6,17.4,10.18,19.41,6.52ZM33.27,17.88c-.65,4.12-4.54,5.71-8,3.41A12.23,12.23,0,0,1,20.39,9.1c1.06-4.37,5.12-5.77,8.55-2.86A12,12,0,0,1,33.27,17.88ZM28.31,74c-7.2,10.66-14.46,21.28-21.92,31.77l-.3-.19c6.55-11.32,14.44-21.81,22-32.46,1.34-1.87,2.54-2.17,4.57-1.34C30.66,71.43,29.39,72.36,28.31,74Zm12.23,49Q39,101.5,37.43,80l.7,0,3.15,43Zm-.89-59.9a1.93,1.93,0,0,1,0-3.86A1.93,1.93,0,0,1,39.65,63.09ZM86.14,15.16c-5.85-.11-8.66,1.52-13.48,7.55C74.3,17.53,81.89,13.33,86.14,15.16ZM66.36,41.27a7.93,7.93,0,0,1-5.2,3.14c3.24-1.06,4.8-3.84,6.76-6.27a25.55,25.55,0,0,1,3.55-3C69.55,37.42,67.91,39.31,66.36,41.27ZM77,31.73a4.55,4.55,0,0,1-4-4.87c.41-5.73,6.46-10.75,12-10a4.64,4.64,0,0,1,3.86,4.87C88.73,27,82.19,32.51,77,31.73Z"/></g></g></g></svg>