<svg xmlns="http://www.w3.org/2000/svg" xmlns:xlink="http://www.w3.org/1999/xlink" viewBox="0 0 253.59 314.59"><defs><style>.cls-1,.cls-10,.cls-2,.cls-3,.cls-4,.cls-6,.cls-7,.cls-8,.cls-9{stroke-miterlimit:10;}.cls-1,.cls-10,.cls-2,.cls-3,.cls-7,.cls-8,.cls-9{stroke-width:0.54px;}.cls-1{fill:url(#radial-gradient);stroke:url(#radial-gradient-2);}.cls-2,.cls-3{stroke:#392470;}.cls-2{fill:url(#radial-gradient-3);}.cls-3{fill:url(#radial-gradient-4);}.cls-4{font-size:81.53px;fill:#ec1c24;stroke-width:0.27px;}.cls-10,.cls-4,.cls-7,.cls-8,.cls-9{stroke:#231f20;}.cls-4,.cls-6{font-family:Sketch, Sketch ;}.cls-5{letter-spacing:0.02em;}.cls-6{font-size:50.43px;fill:#392470;stroke:#636466;stroke-width:0.41px;}.cls-7{fill:#f3f1f1;}.cls-8{fill:#fff7eb;}.cls-9{fill:#d72b29;}.cls-10{fill:#2f406a;}.cls-11{font-size:73.92px;font-family:Authenia-Regular, Authenia;letter-spacing:0em;}.cls-11,.cls-12{fill:#3d3630;}</style><radialGradient id="radial-gradient" cx="126.8" cy="127.13" r="126.69" gradientUnits="userSpaceOnUse"><stop offset="0" stop-color="#fff"/><stop offset="0.45" stop-color="#fff7eb"/></radialGradient><radialGradient id="radial-gradient-2" cx="126.8" cy="127.13" r="126.96" gradientUnits="userSpaceOnUse"><stop offset="0" stop-color="#fff"/><stop offset="0.45" stop-color="#d72b29"/></radialGradient><radialGradient id="radial-gradient-3" cx="150.22" cy="7.98" r="0.01" xlink:href="#radial-gradient-2"/><radialGradient id="radial-gradient-4" cx="173.5" cy="16.86" r="0.07" xlink:href="#radial-gradient-2"/></defs><g id="Layer_2" data-name="Layer 2"><g id="Layer_1-2" data-name="Layer 1"><path class="cls-1" d="M208.89,213.07c.67-1.12,3.23-4,3.9-5.14,3-2.35,6.2-4.18,10.28-3.55a6.14,6.14,0,0,0,6.85-3.52,5.89,5.89,0,0,0,1.27-4.89c-1-3.93-2.93-7.83-.26-11.85a1,1,0,0,0-.05-1.07,9.33,9.33,0,0,0,3.28-7.43l0,0a21.1,21.1,0,0,1,9.63-5.2,4.57,4.57,0,0,0,2.11-1.55,9.13,9.13,0,0,0,1.43-2.35,7.91,7.91,0,0,0,.13-4.57,1.1,1.1,0,0,1-.14-.53l-3-4.77c-1.82-1.14-1.79-3-1.87-4.82l.6-5.07c.25-.39.49-.77.72-1.17l.08-5.56c.31-.09,0,0,.62-.59,2.58-2.44,5.29-4.53,6.73-6.44a16.55,16.55,0,0,0,1.62-2.82,8.34,8.34,0,0,0,0-5.75c-.22-1.61-2.19-3-2.44-3.64a7.33,7.33,0,0,0-2.79-2.79c-1.48-1.29.28.26-2.46-2.2,0-.07-.24-.38-.22-.45l-.71-1.94-.21-.6c-1.89-10.36,0,0-2-10.34l.08,0c1-2,.53-4.56,2.47-6.17a24.52,24.52,0,0,1,1.47-2c1.14-1.08.89-2.6,1.24-3.93a.35.35,0,0,1-.09-.36c-.5-3.93-2.41-6.71-6.35-7.87-.85-.94-2.07-1.22-3.15-1.77-2.16-1.3-3.18-3.48-4.25-5.6-1-1.67-1.44-3.7-3.1-5l-.45-.22a23.45,23.45,0,0,0-1-2.23c-1.12-2.06-1.65-4.09-.13-6.19.19-.59.05-1.31.68-1.73l.09-1.43.06,0c.41-.13.75-.3.53-.83a5.48,5.48,0,0,0-1.26-4.15,1.58,1.58,0,0,0-.24-.15.71.71,0,0,0-.08-.45,5.06,5.06,0,0,0-3.58-2.86.66.66,0,0,0-.28,0l.05,0a34.08,34.08,0,0,0-4.39-.3c-2.24.11-4.3,0-5.83-2-.67-2.43-2.78-3.57-4.5-5.07-.95-.85-1.84-1.76-2.74-2.67-1.51-1.55-3.11-3.08-3.18-5.45-.05-1.86-.53-3.66-.7-5.5-.09-.39-.19-.79-.28-1.18l-.1.1a.69.69,0,0,0-.11-.44q-3-4.8-7.22-3.95a1,1,0,0,0-.22.09l0-.05c-.69.05-1.52-.13-2,.19-4.18,2.53-7.9,1.16-11.59-1.12-1.16-.72-2.41-1.28-3.63-1.92-4.71-2.08-3.39-.94-4.71-2.08-1.55-1.35-2.59-2.13-2.88-4.53-.66-1.59-.85-3.37-2-4.75h0A6.61,6.61,0,0,0,159.69,7c-1.07-.17-1.62.71-2.19,1.28-2.58,2.57-5.62,2.84-9,2.23-2.7-.5-5.43-.84-8.16-1.12-3.09-.32-5.73-1.23-7.19-4.29a10.32,10.32,0,0,0-2.79-3.38h0a6.81,6.81,0,0,0-9.47,1.1c-2.46,2.83-4.3,6.38-8.87,6.57a38,38,0,0,0-7.88,1.33c-3.62.95-6.79.68-9.51-2.2a13.76,13.76,0,0,0-2.71-1.77h0a6.83,6.83,0,0,0-8.66,3.17A10,10,0,0,0,81.66,14,6.66,6.66,0,0,1,78,18.69c-3.33,1.71-6.62,3.49-9.93,5.26a6.65,6.65,0,0,1-6,.36c-2.08-.84-4.23-1.72-6.58-1.19h0a7.47,7.47,0,0,0-5.25,4.19c1.45,8.31-3.42,13.4-9.21,18a15.68,15.68,0,0,0-1.48,1.46,7.55,7.55,0,0,1-6.34,2.53,11.24,11.24,0,0,0-5.24.32h0c-3.86,1.89-5.38,5.09-4.1,8.63h0a6.21,6.21,0,0,0,.39,1.7c1.92,3.32,1.25,6.41-.72,9.43a15,15,0,0,0-.89,1.85,53.87,53.87,0,0,0-4.22,7.85A7.77,7.77,0,0,1,13.87,82a11.43,11.43,0,0,0-4.8,2h0c-3.47,3.07-4,6.76-.7,10.48,2.92,3.3,3.39,6.69,2.29,10.64a12.42,12.42,0,0,0-.48,2.32c-.49,5.64-1.72,10.72-7.35,13.81-2.41,1.31-3.18,5.82-2,8.28.82,1.75,2.65,2.61,4,3.88.43,1.09,1.5,1.59,2.24,2.4,1.59,2.2,1.67,4.78,1.8,7.35a8.14,8.14,0,0,0,1.29,4.47c1.17,3.7,1,7.07-1.83,10.15S5.09,164.4,7.72,168c.53.71.61,1.88,1.89,1.8A7,7,0,0,0,13,171.39a8.7,8.7,0,0,1,1.92.59c3.29,1.94,3.89,5.64,5.63,8.6a36.65,36.65,0,0,1,2.29,4.92A11.6,11.6,0,0,1,24,191.15c-1.6,4.46-1.89,8.66,2.33,12a2.56,2.56,0,0,0,1.88,1.18,8.75,8.75,0,0,0,1.35.09H32.6a6.26,6.26,0,0,1,5.53,2.21c2,2.16,4.19,4.18,6.25,6.31,1.65,1.79,4,3.15,3.78,6.1,0,1.06,0,2.13,0,3.19a7.11,7.11,0,0,0,1.32,4.08L50.76,228l3.53,2.54a1.73,1.73,0,0,0,1.25.33,1.8,1.8,0,0,0,.75-.42l0,0c1.26.61,2.43-.15,3.63-.39a7.58,7.58,0,0,1,8.33.45c2.74,1.74,5.68,3.13,8.55,4.64,1.49.77,3,1.64,3.47,3.42a7.09,7.09,0,0,0,2,3.84c.64.47.35,1.53,1.19,1.88.24,1,1.11,1.59,1.84,2.24l1.76.73a2.36,2.36,0,0,0,1.71,1.09,4,4,0,0,0,.85,0,6.61,6.61,0,0,0,2-.64c.52-.25,1-.5,1.53-.79a9.47,9.47,0,0,0,2-1.3c2.54-2.44,5.44-2.84,8.76-1.92a42.41,42.41,0,0,0,7.28,1.32c3.21.29,5.93,1.46,7.51,4.49.64.83,1.36,1.6,1.94,2.48a4.28,4.28,0,0,0,3.66,1.9c4.44.66,7.68-1,9.7-5,1.29-2.57,3.62-3.51,6.31-3.76a37.92,37.92,0,0,0,5-.57c4.8-1.09,9.38-1.18,13.3,2.52a5.32,5.32,0,0,0,2.68,1.21c2,.35,3.94.43,5.31-1.49,0,0,0-.05,0-.07,1.41.14,2.19-.8,2.87-1.85a10.26,10.26,0,0,0,1.4-3.59,7.82,7.82,0,0,1,5.49-6.4,43.11,43.11,0,0,0,7.47-3.67,10.78,10.78,0,0,1,9.41-.81c6.92,2.35,12.09-1.28,11.93-8.51-.08-3.72,1.47-6.07,3.84-8.85"/><path class="cls-2" d="M150.21,8h0Z"/><path class="cls-3" d="M173.44,16.94l0-.16.1.08A.74.74,0,0,0,173.44,16.94Z"/><text class="cls-4" transform="translate(39.56 93.86)"><tspan class="cls-5">Sugar</tspan><tspan x="176.18" y="0"> </tspan></text><text class="cls-6" transform="translate(94.59 135.21) scale(1.75 1)">Ann</text><g id="Barber_pole"><path class="cls-7" d="M66.94,121.76c-.33-1.66-.86-3-2.58-3.21-.7-.09-.91-.54-1.11-1.07-2.54-6.81-7.48-10.59-14.63-11.52-.64-.08-1-.21-1.15-.9a3.43,3.43,0,0,0-3.91-2.65c-1.75.25-2.89,1.6-3,3.69a1.34,1.34,0,0,1-.83,1.41c-6.41,3.19-9.66,8.48-9.94,15.58a1.88,1.88,0,0,1-1,1.72c-1.39.93-1.22,2.37-1,3.71.18,1,.5,2.24,1.82,2.26s1.5.82,1.67,1.86q3.81,22.52,7.67,45,1.79,10.46,3.56,20.94c.1.57.61,1.3-.46,1.66-1.57.52-1.71,1.82-1.48,3.19.27,1.54.79,3,2.62,3.17a2.3,2.3,0,0,1,1.72,1.18,17,17,0,0,0,13.16,8.88A2.63,2.63,0,0,1,60,217.81a3.44,3.44,0,0,0,6.14-1.14A2.57,2.57,0,0,1,67.69,215,16.91,16.91,0,0,0,77,202.92c.22-1.06.4-1.88,1.55-2.43,1.45-.69,1.5-2.15,1.25-3.57-.2-1.13-.45-2.45-1.78-2.5-1.55-.07-1.55-1-1.72-2.06Q70.64,159.48,65,126.62c-.06-.37-.14-.74-.17-1.11s-.08-.75.47-.81C67.38,124.45,66.94,122.91,66.94,121.76Z"/><path class="cls-8" d="M39.68,160.32c-.37-2-.71-4-1.15-6-.22-1,.43-1.5.95-2.07A105.5,105.5,0,0,1,53,139.75a2,2,0,0,0,.91-2.31,61.56,61.56,0,0,1-1.17-8.5,92.78,92.78,0,0,0-16.12,14.14c-.26-2.8-1.18-5.08-.89-7.56l7.72-7.84c1.71-1,3.69-1,5.56-1.31,2.63-.44,5.29-.68,7.94-1,.44,0,1,0,1,.41s-.33.62-.76.66c-1.42.11-1.95,1.57-3.12,2.06-.52.22-.24.59-.17.93.44,2.07.88,4.13,1.29,6.21.1.5.21,1.13.74,1.11s.6-.69.66-1.17a6.33,6.33,0,0,1,.69-2.3,2.09,2.09,0,0,1,1.77-1.18c1.24-.06,1.92,1.25,3.23,1.27.46,0,.36,1.2.51,1.85,1,4.12,1,8.37,1.77,12.51.47,2.43,1.23,4.78,1.65,7.23.57,3.29.5,6.65,1.21,9.93.62,2.89,1.69,5.66,2,8.65a96.36,96.36,0,0,0,1.32,9.73c.71,3.61,1.66,7.18,2.15,10.83.09.6.56,1.33-.56,1.61a119.32,119.32,0,0,1-18.57,3.45,45.75,45.75,0,0,1,8.45-7.2,1.44,1.44,0,0,0,.81-1.67c-.5-2.49-.93-5-1.34-7.51-.16-1-.51-1.12-1.31-.51-3.16,2.43-6.33,4.84-9.25,7.55-1.87,1.74-3.42,3.8-5.52,5.29a13,13,0,0,0-.54-2.73c-1.38-3.26.5-5.29,2.39-7.58,3.23-3.89,7.44-6.58,11.22-9.8a2.76,2.76,0,0,0,1.14-3.13,43,43,0,0,1-1-5.86c-.19-1.89-.89-1.67-2-.76-2.5,2-4.91,4.05-7.24,6.24A78.22,78.22,0,0,0,42.56,178c-.29-2.79-1.12-5.06-1-7.48,1.87-1.94,3.69-3.93,5.63-5.8a94.18,94.18,0,0,1,9-7.73,1.67,1.67,0,0,0,.75-1.88c-.41-2.2-.83-4.4-1.11-6.61-.2-1.57-.54-1.89-2-.86A110.5,110.5,0,0,0,39.68,160.32ZM57.3,145.05c-.49.52-.28,1.14-.18,1.72.37,2.33.75,4.65,1.19,7,.07.4-.16,1.21.6,1.09s.47-.78.39-1.26c-.43-2.5-.87-5-1.31-7.51C57.91,145.64,57.86,145.19,57.3,145.05Zm4.42,22.27h0c-.21-1.23-.4-2.45-.63-3.67-.06-.32.13-.86-.44-.85s-.72.38-.62.91l1.29,7.53c.07.42.25.71.73.62s.39-.52.33-.87C62.14,169.77,61.93,168.55,61.72,167.32Zm2.07,15.91c-.29,2,.25,3.84.54,5.71,0,.37.06,1,.72.71.49-.25,1.44-.57,1.06-1.23A28.44,28.44,0,0,1,63.79,183.23Z"/><path class="cls-9" d="M39.68,160.32a110.5,110.5,0,0,1,14.17-12.65c1.43-1,1.77-.71,2,.86.28,2.21.7,4.41,1.11,6.61a1.67,1.67,0,0,1-.75,1.88,94.18,94.18,0,0,0-9,7.73c-1.94,1.87-3.76,3.86-5.63,5.8Q40.64,165.43,39.68,160.32Z"/><path class="cls-9" d="M45.55,195.09c2.1-1.49,3.65-3.55,5.52-5.29,2.92-2.71,6.09-5.12,9.25-7.55.8-.61,1.15-.48,1.31.51.41,2.51.84,5,1.34,7.51a1.44,1.44,0,0,1-.81,1.67,45.75,45.75,0,0,0-8.45,7.2c-2.14.65-4.4.46-6.58.88-.73.14-.86-.53-1-1.11C46,197.64,45.76,196.36,45.55,195.09Z"/><path class="cls-8" d="M65.72,121.55c.37,1.9,0,2.36-1.87,2.39a98.13,98.13,0,0,0-32.55,5.68c-.78.28-1.81.46-2.18-.71s-.82-2.66.73-3.42a18.51,18.51,0,0,1,4-1.43,225.49,225.49,0,0,1,25.83-4.42c1.23-.13,2.47-.06,3.71-.07A2.05,2.05,0,0,1,65.72,121.55Z"/><path class="cls-8" d="M61.63,203.52a130.59,130.59,0,0,1-16.42,2.11c-1.54.07-3,0-3.45-2-.4-1.78.05-2.5,1.88-2.47a96.62,96.62,0,0,0,18.81-1.88,89.13,89.13,0,0,0,13.45-3.57c1-.34,1.91-.8,2.52.5.7,1.48.38,2.94-.92,3.5a24.25,24.25,0,0,1-4.21,1.42C69.18,202.12,65.06,203,61.63,203.52Z"/><path class="cls-8" d="M46.12,107.87a13.78,13.78,0,0,1,10.28,2.8c1.39,1.09,2.58,2.48,2.11,4.43s-2.19,2.74-4,3.06A13.32,13.32,0,0,1,44,115.71c-1.52-1.12-2.91-2.53-2.41-4.65S44,108.31,46.12,107.87Z"/><path class="cls-8" d="M51.87,207.89a12.31,12.31,0,0,1,8.73,3.53,2,2,0,0,1,.81,2.14c-.35,1-1.31,1.1-2.17,1.13a12,12,0,0,1-8.94-3.4,2.06,2.06,0,0,1-.83-2.29C49.82,208.12,50.73,208.09,51.87,207.89Z"/><path class="cls-9" d="M43.41,127.68l-7.72,7.84c-.22-.89-.5-1.76-.66-2.66-.59-3.19-.56-3.14,2.42-4,1.41-.41,2.69-1.25,4.21-1.32C42.24,127.53,42.86,127.11,43.41,127.68Z"/><path class="cls-9" d="M57.3,145.05c.56.14.61.59.69,1,.44,2.5.88,5,1.31,7.51.08.48.22,1.17-.39,1.26s-.53-.69-.6-1.09c-.44-2.32-.82-4.64-1.19-7C57,146.19,56.81,145.57,57.3,145.05Z"/><path class="cls-10" d="M61.72,167.32c.21,1.23.42,2.45.62,3.68.06.35.22.76-.33.87s-.66-.2-.73-.62L60,163.72c-.1-.53.11-.9.62-.91s.38.53.44.85c.23,1.22.42,2.44.63,3.67Z"/><path class="cls-9" d="M63.79,183.23a28.44,28.44,0,0,0,2.32,5.19c.38.66-.57,1-1.06,1.23-.66.32-.67-.34-.72-.71C64,187.07,63.5,185.23,63.79,183.23Z"/><path class="cls-10" d="M66.94,121.76c0,1.15.44,2.69-1.62,2.94-.55.06-.51.44-.47.81s.11.74.17,1.11q5.63,32.87,11.23,65.74c.17,1,.17,2,1.72,2.06,1.33.05,1.58,1.37,1.78,2.5.25,1.42.2,2.88-1.25,3.57-1.15.55-1.33,1.37-1.55,2.43A16.91,16.91,0,0,1,67.69,215a2.57,2.57,0,0,0-1.52,1.64A3.44,3.44,0,0,1,60,217.81a2.63,2.63,0,0,0-1.93-1.13A16.93,16.93,0,0,1,45,207.92a2.15,2.15,0,0,0-1.8-1.3c-1.83-.21-2.35-1.63-2.62-3.17-.23-1.37-.09-2.67,1.48-3.19,1.07-.36.56-1.09.46-1.66Q40.78,188.12,39,177.66q-3.84-22.51-7.67-45c-.17-1-.29-1.83-1.67-1.86s-1.64-1.25-1.82-2.26c-.25-1.34-.42-2.78,1-3.71a1.88,1.88,0,0,0,1-1.72c.28-7.1,3.53-12.39,9.94-15.58a1.34,1.34,0,0,0,.83-1.41c.1-2.09,1.24-3.44,3-3.69a3.43,3.43,0,0,1,3.91,2.65c.16.69.51.82,1.15.9,7.15.93,12.09,4.71,14.63,11.52.2.53.41,1,1.11,1.07C66.08,118.79,66.61,120.1,66.94,121.76ZM45.55,195.09c.21,1.27.43,2.55.63,3.82.09.58.22,1.25,1,1.11,2.18-.42,4.44-.23,6.58-.88a119.32,119.32,0,0,0,18.57-3.45c1.12-.28.65-1,.56-1.61-.49-3.65-1.44-7.22-2.15-10.83a96.36,96.36,0,0,1-1.32-9.73c-.26-3-1.33-5.76-2-8.65-.71-3.28-.64-6.64-1.21-9.93-.42-2.45-1.18-4.8-1.65-7.23-.81-4.14-.8-8.39-1.77-12.51-.15-.65,0-1.85-.51-1.85-1.31,0-2-1.33-3.23-1.27a2.09,2.09,0,0,0-1.77,1.18,6.33,6.33,0,0,0-.69,2.3c-.06.48-.09,1.16-.66,1.17s-.64-.61-.74-1.11c-.41-2.08-.85-4.14-1.29-6.21-.07-.34-.35-.71.17-.93,1.17-.49,1.7-1.95,3.12-2.06.43,0,.84-.32.76-.66s-.6-.46-1-.41c-2.65.34-5.31.58-7.94,1-1.87.32-3.85.28-5.56,1.31-.55-.57-1.17-.15-1.75-.13-1.52.07-2.8.91-4.21,1.32-3,.85-3,.8-2.42,4,.16.9.44,1.77.66,2.66-.29,2.48.63,4.76.89,7.56A92.78,92.78,0,0,1,52.7,128.94a61.56,61.56,0,0,0,1.17,8.5,2,2,0,0,1-.91,2.31,105.5,105.5,0,0,0-13.48,12.48c-.52.57-1.17,1.07-.95,2.07.44,2,.78,4,1.15,6l1.9,10.23c-.14,2.42.69,4.69,1,7.48a78.22,78.22,0,0,1,6.92-6.56c2.33-2.19,4.74-4.25,7.24-6.24,1.15-.91,1.85-1.13,2,.76a43,43,0,0,0,1,5.86A2.76,2.76,0,0,1,58.62,175c-3.78,3.22-8,5.91-11.22,9.8-1.89,2.29-3.77,4.32-2.39,7.58A13,13,0,0,1,45.55,195.09Zm20.17-73.54a2.05,2.05,0,0,0-2.31-2c-1.24,0-2.48-.06-3.71.07a225.49,225.49,0,0,0-25.83,4.42,18.51,18.51,0,0,0-4,1.43c-1.55.76-1.12,2.16-.73,3.42s1.4,1,2.18.71a98.13,98.13,0,0,1,32.55-5.68C65.7,123.91,66.09,123.45,65.72,121.55Zm-4.09,82c3.43-.48,7.55-1.4,11.66-2.35a24.25,24.25,0,0,0,4.21-1.42c1.3-.56,1.62-2,.92-3.5-.61-1.3-1.56-.84-2.52-.5a89.13,89.13,0,0,1-13.45,3.57,96.62,96.62,0,0,1-18.81,1.88c-1.83,0-2.28.69-1.88,2.47.44,2,1.91,2,3.45,2A130.59,130.59,0,0,0,61.63,203.52ZM46.12,107.87c-2.12.44-4,1-4.56,3.19s.89,3.53,2.41,4.65a13.32,13.32,0,0,0,10.52,2.45c1.83-.32,3.53-1,4-3.06s-.72-3.34-2.11-4.43A13.78,13.78,0,0,0,46.12,107.87Zm5.75,100c-1.14.2-2,.23-2.4,1.11a2.06,2.06,0,0,0,.83,2.29,12,12,0,0,0,8.94,3.4c.86,0,1.82-.15,2.17-1.13a2,2,0,0,0-.81-2.14A12.31,12.31,0,0,0,51.87,207.89Z"/></g><g id="Spice_scissors"><text class="cls-11" transform="translate(75.45 189.73) scale(1.27 1)"><tspan xml:space="preserve">S  ice</tspan></text><path class="cls-12" d="M163.65,154.85c-2.58-7.42-11.15,12.63-18,7.27-9.8-6-24.84,5.18-26.37,15.77-1.7,7.43-4.18,14.58-10.25,19.67-6.94,5.24-15,8.14-22.88,12.15-2.88-5.36-5.94-10.67-8.65-16.15-8-16.42,10.18-27.17-4.58-43.4-4.19-4.81-10.31-6.6-15.19-4.51-13.34,6.09-8.14,27.27,3.2,32.95a20.78,20.78,0,0,1,10.27,14.61c1.79,10.42,2.67,21,3.8,31.51.11,1-.72,2.11-1.11,3.17l.06,0C59.62,247,46.66,267.1,33.36,287a40.72,40.72,0,0,0-3.8,8.32c-.38,1.05.08,2.42.15,3.64,16.32-15.6,30.74-37.71,46.88-56,2,24.36,4,48,5.91,71.7,2.53-.18,3.1-1.89,3.28-3.45a129.3,129.3,0,0,0,1.3-15.06c0-21.27-.19-42.54-.26-63.81a5.36,5.36,0,0,1,1-3.11c5.27-6.6,10.46-13.28,16.07-19.58,2.12-2.38,5.33-3.78,8-5.75,8.1-4.79,7.28-12,18.55-11.58,12.16.62,23.54-11.3,21-23.48,0-.7.08-1.74.53-2.06C154.34,165,160.84,156.67,163.65,154.85Zm-108.9-1.64c-1.83,5.38-.79,10.5,1.57,15.49C52.87,165.12,52.11,158,54.75,153.21ZM73,168.12c-.86,5.41-6,7.5-10.55,4.47-4.88-3.22-7.72-10.37-6.36-16s6.72-7.57,11.22-3.75A15.75,15.75,0,0,1,73,168.12Zm-6.51,73.61c-9.46,14-19,27.93-28.78,41.7l-.39-.25c8.6-14.86,18.95-28.63,28.89-42.61,1.76-2.45,3.34-2.85,6-1.75C69.52,238.41,67.85,239.63,66.44,241.73Zm16,64.36q-2-28.21-4.09-56.43l.93-.06Q81.4,277.82,83.46,306Zm-1.17-78.62c-3.32,0-3.32-5.06,0-5.08S84.64,227.45,81.32,227.47Zm61-62.92c-7.68-.15-11.37,2-17.7,9.91C126.8,167.65,136.76,162.15,142.34,164.55Zm-26,34.27a10.43,10.43,0,0,1-6.83,4.12c4.26-1.38,6.31-5,8.87-8.23,1.15-1.43,2.82-2.44,4.67-4C120.56,193.77,118.41,196.25,116.38,198.82Zm13.9-12.52a6,6,0,0,1-5.24-6.4c.54-7.51,8.48-14.1,15.74-13.14,3.46.92,5.11,3.17,5.06,6.39C145.74,180.05,137.15,187.32,130.28,186.3Z"/></g></g></g></svg>