<svg xmlns="http://www.w3.org/2000/svg" viewBox="0 0 40.2 89.47"><defs><style>.cls-1{fill:#f3f1f1;}.cls-1,.cls-2,.cls-3,.cls-4{stroke:#231f20;stroke-miterlimit:10;stroke-width:0.41px;}.cls-2{fill:#fff7eb;}.cls-3{fill:#d72b29;}.cls-4{fill:#2f406a;}</style></defs><g id="Layer_2" data-name="Layer 2"><g id="Layer_1-2" data-name="Layer 1"><g id="Barber_pole"><path class="cls-1" d="M30.14,15c-.25-1.27-.65-2.27-2-2.45-.54-.07-.7-.41-.85-.81A12.86,12.86,0,0,0,16.19,2.94c-.49-.06-.76-.16-.88-.68a2.63,2.63,0,0,0-3-2,2.7,2.7,0,0,0-2.28,2.82,1,1,0,0,1-.63,1.07A13,13,0,0,0,1.84,16a1.42,1.42,0,0,1-.77,1.31C0,18,.15,19.11.33,20.12c.14.78.38,1.71,1.39,1.73s1.14.62,1.28,1.42Q5.9,40.42,8.84,57.56c.9,5.32,1.82,10.63,2.71,16,.07.44.47,1-.35,1.27-1.19.4-1.31,1.39-1.12,2.44s.6,2.25,2,2.41a1.74,1.74,0,0,1,1.31.9,12.94,12.94,0,0,0,10,6.76,2,2,0,0,1,1.48.86,2.62,2.62,0,0,0,4.68-.87A1.93,1.93,0,0,1,30.71,86a12.92,12.92,0,0,0,7.06-9.23c.17-.81.3-1.44,1.18-1.85,1.1-.53,1.14-1.64.95-2.72-.15-.86-.35-1.86-1.36-1.91-1.18,0-1.18-.79-1.31-1.57L28.68,18.68a8.13,8.13,0,0,1-.13-.84c0-.29-.06-.58.35-.63C30.48,17,30.14,15.85,30.14,15Z"/><path class="cls-2" d="M9.37,44.35c-.28-1.53-.54-3.06-.87-4.58-.17-.76.32-1.14.72-1.58a80.31,80.31,0,0,1,10.27-9.5,1.57,1.57,0,0,0,.7-1.77,47.37,47.37,0,0,1-.9-6.47A71,71,0,0,0,7,31.22c-.19-2.13-.9-3.87-.67-5.76l5.87-6c1.31-.79,2.81-.76,4.24-1,2-.34,4-.52,6.05-.78.34,0,.72,0,.79.32s-.25.47-.57.5c-1.09.08-1.49,1.2-2.39,1.57-.39.16-.18.45-.12.71.33,1.57.66,3.15,1,4.72.07.39.16.86.56.86s.46-.54.51-.9a4.8,4.8,0,0,1,.52-1.75,1.59,1.59,0,0,1,1.35-.9c.95-.05,1.47.95,2.46,1,.35,0,.27.92.39,1.42.74,3.13.73,6.37,1.34,9.53.36,1.85.95,3.64,1.27,5.5.43,2.51.38,5.07.92,7.57A52.76,52.76,0,0,1,32,54.41a70.93,70.93,0,0,0,1,7.41c.54,2.75,1.26,5.47,1.64,8.26.06.45.42,1-.43,1.22a91.82,91.82,0,0,1-14.15,2.63,34.46,34.46,0,0,1,6.44-5.49,1.11,1.11,0,0,0,.62-1.27c-.38-1.9-.71-3.81-1-5.72-.12-.75-.38-.86-1-.39-2.41,1.85-4.82,3.69-7,5.76a44.37,44.37,0,0,1-4.21,4,9.57,9.57,0,0,0-.4-2.08c-1.06-2.48.37-4,1.82-5.77,2.45-3,5.67-5,8.54-7.47a2.1,2.1,0,0,0,.87-2.38,33.65,33.65,0,0,1-.76-4.47c-.15-1.43-.68-1.27-1.56-.57-1.9,1.51-3.74,3.08-5.51,4.75a60.21,60.21,0,0,0-5.27,5c-.23-2.13-.86-3.86-.75-5.7,1.43-1.48,2.81-3,4.29-4.42a73.59,73.59,0,0,1,6.83-5.89,1.26,1.26,0,0,0,.57-1.43c-.3-1.68-.63-3.35-.84-5-.15-1.19-.41-1.44-1.5-.65A84.45,84.45,0,0,0,9.37,44.35ZM22.79,32.72c-.37.4-.2.87-.13,1.31.28,1.77.57,3.55.9,5.31.06.3-.12.92.46.83s.36-.59.3-1c-.32-1.92-.66-3.82-1-5.73C23.26,33.17,23.23,32.83,22.79,32.72Zm3.37,17h0c-.16-.93-.31-1.86-.49-2.79,0-.24.1-.66-.33-.65s-.55.29-.48.7c.34,1.91.66,3.82,1,5.73.05.32.19.54.55.47s.3-.39.26-.66Zm1.58,12.12a14.33,14.33,0,0,0,.41,4.35c0,.28.05.79.55.54s1.1-.44.81-.94A21.56,21.56,0,0,1,27.74,61.81Z"/><path class="cls-3" d="M9.37,44.35a84.45,84.45,0,0,1,10.8-9.63c1.09-.79,1.35-.54,1.5.65.21,1.69.54,3.36.84,5a1.26,1.26,0,0,1-.57,1.43,73.59,73.59,0,0,0-6.83,5.89c-1.48,1.43-2.86,2.94-4.29,4.42Q10.1,48.25,9.37,44.35Z"/><path class="cls-3" d="M13.84,70.84a44.37,44.37,0,0,0,4.21-4c2.23-2.07,4.64-3.91,7.05-5.76.61-.47.87-.36,1,.39.32,1.91.65,3.82,1,5.72a1.11,1.11,0,0,1-.62,1.27,34.46,34.46,0,0,0-6.44,5.49c-1.63.49-3.35.35-5,.67-.55.11-.66-.4-.73-.84C14.17,72.79,14,71.82,13.84,70.84Z"/><path class="cls-2" d="M29.21,14.81c.28,1.45,0,1.81-1.42,1.83A74.7,74.7,0,0,0,3,21c-.59.21-1.37.35-1.65-.55s-.63-2,.55-2.6a14.49,14.49,0,0,1,3.06-1.09,170.46,170.46,0,0,1,19.69-3.36,24.09,24.09,0,0,1,2.82-.06A1.56,1.56,0,0,1,29.21,14.81Z"/><path class="cls-2" d="M26.1,77.27a99.93,99.93,0,0,1-12.51,1.6c-1.18,0-2.3,0-2.63-1.49-.31-1.35,0-1.9,1.43-1.88a74.16,74.16,0,0,0,14.33-1.43A68,68,0,0,0,37,71.35c.74-.26,1.46-.62,1.93.38a1.85,1.85,0,0,1-.7,2.67A19.54,19.54,0,0,1,35,75.48C31.85,76.2,28.71,76.9,26.1,77.27Z"/><path class="cls-2" d="M14.28,4.39a10.51,10.51,0,0,1,7.83,2.14c1.06.83,2,1.89,1.61,3.37S22.05,12,20.66,12.23a10.12,10.12,0,0,1-8-1.86c-1.16-.86-2.22-1.93-1.84-3.54S12.67,4.73,14.28,4.39Z"/><path class="cls-2" d="M18.66,80.59a9.39,9.39,0,0,1,6.65,2.7,1.55,1.55,0,0,1,.62,1.62c-.27.75-1,.84-1.65.87a9.22,9.22,0,0,1-6.81-2.59,1.58,1.58,0,0,1-.64-1.75C17.1,80.77,17.79,80.75,18.66,80.59Z"/><path class="cls-3" d="M12.21,19.49l-5.87,6c-.18-.67-.39-1.34-.51-2C5.38,21,5.4,21,7.68,20.39a13.68,13.68,0,0,1,3.2-1C11.33,19.37,11.8,19.06,12.21,19.49Z"/><path class="cls-3" d="M22.79,32.72c.44.11.47.45.53.77.34,1.91.68,3.81,1,5.73.06.36.16.88-.3,1s-.4-.53-.46-.83c-.33-1.76-.62-3.54-.9-5.31C22.59,33.59,22.42,33.12,22.79,32.72Z"/><path class="cls-4" d="M26.16,49.69l.48,2.8c0,.27.16.58-.26.66s-.5-.15-.55-.47c-.33-1.91-.65-3.82-1-5.73-.07-.41.09-.69.48-.7s.29.41.33.65c.18.93.33,1.86.49,2.79Z"/><path class="cls-3" d="M27.74,61.81a21.56,21.56,0,0,0,1.77,4c.29.5-.43.75-.81.94s-.51-.26-.55-.54A14.33,14.33,0,0,1,27.74,61.81Z"/><path class="cls-4" d="M30.14,15c0,.87.34,2-1.24,2.23-.41.05-.38.34-.35.63a8.13,8.13,0,0,0,.13.84l8.55,50.08c.13.78.13,1.52,1.31,1.57,1,0,1.21,1,1.36,1.91.19,1.08.15,2.19-.95,2.72-.88.41-1,1-1.18,1.85A12.92,12.92,0,0,1,30.71,86a1.93,1.93,0,0,0-1.15,1.24,2.62,2.62,0,0,1-4.68.87,2,2,0,0,0-1.48-.86,12.88,12.88,0,0,1-10-6.67,1.65,1.65,0,0,0-1.37-1c-1.39-.16-1.79-1.25-2-2.41s-.07-2,1.12-2.44c.82-.27.42-.83.35-1.27-.89-5.32-1.81-10.63-2.71-16Q5.91,40.42,3,23.27c-.14-.8-.23-1.4-1.28-1.42S.47,20.9.33,20.12c-.18-1-.31-2.11.74-2.82A1.42,1.42,0,0,0,1.84,16,13,13,0,0,1,9.42,4.12a1,1,0,0,0,.63-1.07A2.7,2.7,0,0,1,12.33.23a2.63,2.63,0,0,1,3,2c.12.52.39.62.88.68a12.86,12.86,0,0,1,11.14,8.78c.15.4.31.74.85.81C29.49,12.71,29.89,13.71,30.14,15ZM13.84,70.84c.16,1,.33,2,.48,2.92.07.44.18.95.73.84,1.66-.32,3.38-.18,5-.67A91.82,91.82,0,0,0,34.21,71.3c.85-.22.49-.77.43-1.22-.38-2.79-1.1-5.51-1.64-8.26a70.93,70.93,0,0,1-1-7.41,52.76,52.76,0,0,0-1.48-6.59c-.54-2.5-.49-5.06-.92-7.57-.32-1.86-.91-3.65-1.27-5.5-.61-3.16-.6-6.4-1.34-9.53-.12-.5,0-1.41-.39-1.42-1,0-1.51-1-2.46-1a1.59,1.59,0,0,0-1.35.9,4.8,4.8,0,0,0-.52,1.75c-.05.36-.07.89-.51.9s-.49-.47-.56-.86c-.32-1.57-.65-3.15-1-4.72-.06-.26-.27-.55.12-.71.9-.37,1.3-1.49,2.39-1.57.32,0,.63-.24.57-.5s-.45-.36-.79-.32c-2,.26-4.05.44-6.05.78-1.43.24-2.93.21-4.24,1-.41-.43-.88-.12-1.33-.1a13.68,13.68,0,0,0-3.2,1c-2.28.65-2.3.61-1.85,3,.12.69.33,1.36.51,2-.23,1.89.48,3.63.67,5.76A71,71,0,0,1,19.29,20.45a47.37,47.37,0,0,0,.9,6.47,1.57,1.57,0,0,1-.7,1.77,80.31,80.31,0,0,0-10.27,9.5c-.4.44-.89.82-.72,1.58.33,1.52.59,3,.87,4.58l1.45,7.8c-.11,1.84.52,3.57.75,5.7a60.21,60.21,0,0,1,5.27-5c1.77-1.67,3.61-3.24,5.51-4.75.88-.7,1.41-.86,1.56.57a33.65,33.65,0,0,0,.76,4.47,2.1,2.1,0,0,1-.87,2.38C20.93,58,17.71,60,15.26,63c-1.45,1.75-2.88,3.29-1.82,5.77A9.57,9.57,0,0,1,13.84,70.84Zm15.37-56a1.56,1.56,0,0,0-1.76-1.5,24.09,24.09,0,0,0-2.82.06A170.46,170.46,0,0,0,4.94,16.73a14.49,14.49,0,0,0-3.06,1.09c-1.18.57-.85,1.65-.55,2.6S2.39,21.18,3,21a74.7,74.7,0,0,1,24.81-4.33C29.2,16.62,29.49,16.26,29.21,14.81ZM26.1,77.27c2.61-.37,5.75-1.07,8.88-1.79a19.54,19.54,0,0,0,3.21-1.08,1.85,1.85,0,0,0,.7-2.67c-.47-1-1.19-.64-1.93-.38a68,68,0,0,1-10.24,2.72A74.16,74.16,0,0,1,12.39,75.5c-1.39,0-1.74.53-1.43,1.88.33,1.51,1.45,1.54,2.63,1.49A99.93,99.93,0,0,0,26.1,77.27ZM14.28,4.39c-1.61.34-3.08.76-3.48,2.44s.68,2.68,1.84,3.54a10.12,10.12,0,0,0,8,1.86c1.39-.24,2.69-.8,3.06-2.33s-.55-2.54-1.61-3.37A10.51,10.51,0,0,0,14.28,4.39Zm4.38,76.2c-.87.16-1.56.18-1.83.85a1.58,1.58,0,0,0,.64,1.75,9.22,9.22,0,0,0,6.81,2.59c.65,0,1.38-.12,1.65-.87a1.55,1.55,0,0,0-.62-1.62A9.39,9.39,0,0,0,18.66,80.59Z"/></g></g></g></svg>