<svg xmlns="http://www.w3.org/2000/svg" xmlns:xlink="http://www.w3.org/1999/xlink" viewBox="0 0 467 572"><defs><style>.cls-1{stroke:#392470;fill:url(#radial-gradient);}.cls-1,.cls-10,.cls-2,.cls-4,.cls-5,.cls-6,.cls-7,.cls-8,.cls-9{stroke-miterlimit:10;}.cls-2{font-size:150px;}.cls-2,.cls-6{fill:#fff7eb;}.cls-10,.cls-2,.cls-4,.cls-9{stroke:#c5c7c9;}.cls-10,.cls-2,.cls-9{stroke-width:0.5px;}.cls-2,.cls-4{font-family:Sketch, Sketch ;}.cls-3{letter-spacing:0.03em;}.cls-4{font-size:92.79px;fill:#193a7b;stroke-width:0.75px;}.cls-5{fill:#f3f1f1;}.cls-5,.cls-6,.cls-7,.cls-8{stroke:#231f20;}.cls-7{fill:#d72b29;}.cls-8{fill:#2f406a;}.cls-9{font-size:136px;font-family:Authenia-Regular, Authenia;letter-spacing:0em;}.cls-10,.cls-9{fill:#3e3630;}</style><radialGradient id="radial-gradient" cx="233.29" cy="233.9" r="233.09" gradientUnits="userSpaceOnUse"><stop offset="0" stop-color="#fff"/><stop offset="0.45" stop-color="#d72b29"/></radialGradient><symbol id="Sugar_Ann_Spice_1.0" data-name="Sugar_Ann_Spice_1.0" viewBox="0 0 466.58 571.29"><path id="Bottle_cap_Background" data-name="Bottle_cap Background" class="cls-1" d="M384.34,392c1.23-2.07,5.93-7.39,7.17-9.46,5.55-4.33,11.41-7.69,18.91-6.53,5.67.87,9.91-1.39,12.61-6.48,1.86-2.72,3.19-5.58,2.33-9-1.8-7.23-5.4-14.4-.49-21.8a1.85,1.85,0,0,0-.08-2,17.11,17.11,0,0,0,6-13.67.25.25,0,0,0,0-.07,38.69,38.69,0,0,1,17.72-9.56,8.55,8.55,0,0,0,3.9-2.87A16.55,16.55,0,0,0,455,306.3c1.16-2.77.76-5.58.24-8.4a2.14,2.14,0,0,1-.25-1l-5.46-8.77c-3.34-2.1-3.3-5.52-3.45-8.86.37-3.11.75-6.22,1.12-9.33.44-.71.89-1.42,1.31-2.15l.16-10.24c.57-.17,0,0,1.14-1.08,4.74-4.48,9.73-8.34,12.37-11.84,1.39-1.43,1.91-3.51,3-5.21a15.33,15.33,0,0,0-.09-10.57c-.39-3-4-5.5-4.47-6.7a13.49,13.49,0,0,0-5.13-5.12c-2.73-2.38.51.47-4.53-4.06,0-.12-.45-.7-.41-.82l-1.3-3.57-.39-1.11c-3.48-19,0,0-3.62-19l.14,0c1.92-3.62,1-8.39,4.55-11.36a42.86,42.86,0,0,1,2.7-3.75c2.09-2,1.63-4.79,2.27-7.24a.67.67,0,0,1-.16-.65c-.91-7.23-4.43-12.36-11.67-14.49-1.57-1.73-3.82-2.25-5.8-3.25-4-2.4-5.85-6.4-7.83-10.31-1.85-3.07-2.64-6.8-5.69-9.11l-.83-.4a44.46,44.46,0,0,0-1.86-4.09c-2.07-3.79-3.05-7.54-.24-11.41.35-1.08.08-2.41,1.25-3.17.05-.88.11-1.76.16-2.64l.12-.06c.74-.25,1.37-.56,1-1.53A10.12,10.12,0,0,0,421,97.33a3.15,3.15,0,0,0-.45-.27,1.39,1.39,0,0,0-.15-.84c-1.49-2.59-3.37-4.72-6.59-5.26a1.2,1.2,0,0,0-.5,0l.08-.09a66.44,66.44,0,0,0-8.07-.55c-4.12.21-7.92-.06-10.72-3.59-1.24-4.46-5.13-6.57-8.3-9.31-1.73-1.58-3.38-3.25-5-4.93-2.79-2.85-5.74-5.65-5.86-10-.09-3.43-1-6.74-1.29-10.12l-.51-2.17-.19.19a1.39,1.39,0,0,0-.19-.82q-5.44-8.82-13.29-7.26a1.4,1.4,0,0,0-.4.16s0-.06.05-.09c-1.26.09-2.78-.24-3.75.35-7.67,4.65-14.53,2.13-21.31-2.07-2.14-1.31-4.45-2.35-6.67-3.52-8.67-3.83-6.26-1.73-8.67-3.83-2.85-2.49-4.77-3.92-5.31-8.34-1.21-2.92-1.56-6.2-3.7-8.73h0a12.13,12.13,0,0,0-16.39-3.38c-2-.31-3,1.29-4,2.34-4.74,4.74-10.33,5.24-16.53,4.1-5-.91-10-1.53-15-2-5.69-.59-10.53-2.27-13.22-7.9a19.11,19.11,0,0,0-5.14-6.22h0c-5.32-4.18-12.71-3.32-17.41,2-4.54,5.22-7.92,11.75-16.32,12.1a69.58,69.58,0,0,0-14.5,2.45c-6.67,1.74-12.5,1.24-17.5-4.05-1.32-1.41-3.31-2.19-5-3.26h0a12.57,12.57,0,0,0-15.94,5.83,18.68,18.68,0,0,0-2.95,7.47,12.24,12.24,0,0,1-6.75,8.68c-6.13,3.15-12.2,6.43-18.28,9.68a12.22,12.22,0,0,1-11,.67c-3.83-1.54-7.78-3.17-12.12-2.2h0a13.82,13.82,0,0,0-9.65,7.71c2.67,15.3-6.28,24.66-16.94,33.17a31.24,31.24,0,0,0-2.73,2.67c-3.2,3.26-6.85,5.06-11.66,4.66-3.17-.27-6.5-.67-9.65.59h0c-7.1,3.47-9.9,9.36-7.54,15.88h0a11.13,11.13,0,0,0,.73,3.12c3.53,6.12,2.29,11.79-1.34,17.35a28.87,28.87,0,0,0-1.63,3.41c-3.22,4.48-5.34,9.54-7.76,14.44a14.39,14.39,0,0,1-8.46,5.31c-3.12.77-6.26,1.59-8.82,3.74h0c-6.38,5.64-7.34,12.43-1.29,19.27,5.37,6.07,6.23,12.31,4.2,19.58a24,24,0,0,0-.87,4.26c-.9,10.39-3.17,19.73-13.53,25.41-4.42,2.42-5.85,10.71-3.74,15.23,1.5,3.22,4.87,4.81,7.38,7.15.81,2,2.76,2.93,4.12,4.41,2.94,4.06,3.09,8.8,3.32,13.53.21,2.9.57,5.76,2.37,8.22,2.16,6.81,1.91,13-3.36,18.68S9.37,302.48,14.2,309c1,1.3,1.13,3.46,3.48,3.32,1.7,1.75,3.95,2.37,6.2,3a17,17,0,0,1,3.54,1.08c6,3.57,7.15,10.38,10.36,15.82A69.57,69.57,0,0,1,42,341.3a21.23,21.23,0,0,1,2.08,10.4c-2.94,8.19-3.48,15.92,4.3,22a4.7,4.7,0,0,0,3.45,2.17,17.17,17.17,0,0,0,2.49.16H60c4.14-.49,7.37,1.09,10.18,4.07,3.73,4,7.72,7.68,11.5,11.6,3,3.29,7.38,5.8,6.95,11.23,0,1.95,0,3.91,0,5.86-.14,2.81,1,5.19,2.42,7.5.8,1.05,1.59,2.11,2.38,3.16q3.26,2.32,6.49,4.67a3.2,3.2,0,0,0,2.3.61,3.15,3.15,0,0,0,1.39-.78l0,0c2.32,1.11,4.47-.28,6.68-.72,5.29-2.94,10.32-2.39,15.34.81s10.44,5.78,15.73,8.54c2.72,1.43,5.41,3,6.37,6.31a13.1,13.1,0,0,0,3.65,7.06c1.17.87.63,2.81,2.18,3.45.44,1.94,2,2.93,3.39,4.13l3.23,1.34a4.4,4.4,0,0,0,3.16,2,7.4,7.4,0,0,0,1.56,0,11.57,11.57,0,0,0,3.71-1.18c1-.45,1.91-.91,2.82-1.44a17.62,17.62,0,0,0,3.63-2.41c4.68-4.49,10-5.21,16.12-3.53a77.35,77.35,0,0,0,13.39,2.43c5.91.54,10.9,2.68,13.82,8.27,1.17,1.53,2.5,2.94,3.56,4.56a7.85,7.85,0,0,0,6.73,3.49c8.18,1.21,14.13-1.81,17.86-9.25,2.37-4.73,6.66-6.45,11.6-6.93a71.14,71.14,0,0,0,9.2-1c8.81-2,17.25-2.19,24.45,4.63a9.73,9.73,0,0,0,4.93,2.22c3.66.65,7.25.81,9.78-2.73l0-.14c2.59.27,4-1.46,5.3-3.4a19,19,0,0,0,2.56-6.61C315.5,438,318.54,434,324.43,432a81.16,81.16,0,0,0,13.75-6.76c5.63-3.22,11.11-3.59,17.3-1.49,12.74,4.32,22.24-2.35,22-15.66-.15-6.84,2.7-11.17,7.05-16.27M25.39,189.41a2.26,2.26,0,0,1,0-.26l.21,0ZM90,76.52h0ZM268.72,22.78h0Zm4.4,1.11Zm8.76,3.3h0Zm29.57,12.36c0-.1,0-.2.05-.3l.19.17A1.08,1.08,0,0,0,311.45,39.55Z"/><text class="cls-2" transform="translate(73.86 164.93)"><tspan class="cls-3">Sugar</tspan><tspan x="324.15" y="0"> </tspan></text><text class="cls-4" transform="translate(175.12 240.99) scale(1.75 1)">Ann</text><g id="Barber_pole"><path class="cls-5" d="M124.25,216.25c-.62-3.05-1.58-5.47-4.75-5.9-1.29-.18-1.67-1-2-2-4.69-12.53-13.77-19.49-26.93-21.2-1.17-.15-1.82-.38-2.12-1.65a6.31,6.31,0,0,0-7.18-4.89c-3.23.46-5.33,3-5.51,6.8A2.45,2.45,0,0,1,74.2,190c-11.79,5.88-17.77,15.6-18.29,28.66a3.45,3.45,0,0,1-1.86,3.17c-2.56,1.71-2.24,4.37-1.79,6.82.34,1.86.92,4.13,3.36,4.17s2.75,1.5,3.07,3.42q7,41.41,14.11,82.82c2.19,12.84,4.4,25.68,6.55,38.53.18,1.05,1.13,2.39-.85,3.05-2.87,1-3.15,3.36-2.71,5.89.49,2.82,1.46,5.43,4.81,5.82a4.32,4.32,0,0,1,3.18,2.17C89.14,384,97.24,389.49,108,390.9a4.75,4.75,0,0,1,3.55,2.07c3.4,4.35,9.59,3.21,11.31-2.1a4.7,4.7,0,0,1,2.78-3,31.1,31.1,0,0,0,17-22.28c.41-2,.73-3.47,2.86-4.48,2.66-1.26,2.76-4,2.3-6.57-.37-2.07-.84-4.49-3.28-4.6-2.86-.13-2.85-1.91-3.17-3.79q-10.32-60.48-20.65-120.95c-.12-.68-.26-1.35-.33-2s-.13-1.38.87-1.51C125.06,221.19,124.24,218.36,124.25,216.25Z"/><path class="cls-6" d="M74.1,287.2c-.7-3.7-1.31-7.41-2.12-11.08-.41-1.84.79-2.76,1.74-3.81a194.46,194.46,0,0,1,24.8-22.95,3.76,3.76,0,0,0,1.69-4.26A113.6,113.6,0,0,1,98,229.46a171.48,171.48,0,0,0-29.66,26c-.46-5.16-2.16-9.35-1.62-13.92L81,227.14c3.15-1.9,6.79-1.83,10.23-2.41,4.84-.81,9.74-1.25,14.61-1.87.82-.1,1.74-.05,1.92.76.13.62-.6,1.14-1.39,1.2-2.62.2-3.59,2.9-5.76,3.8-1,.39-.44,1.08-.3,1.71.8,3.8,1.61,7.6,2.36,11.41.18.94.39,2.08,1.36,2.06s1.11-1.28,1.23-2.17a11.46,11.46,0,0,1,1.27-4.23,3.81,3.81,0,0,1,3.26-2.15c2.28-.13,3.53,2.3,5.93,2.32.84,0,.66,2.21,1,3.41,1.78,7.57,1.76,15.39,3.24,23,.87,4.47,2.28,8.79,3,13.29,1,6.07.92,12.24,2.22,18.28,1.15,5.31,3.11,10.42,3.59,15.92a173.55,173.55,0,0,0,2.43,17.89c1.3,6.65,3,13.21,4,19.94.15,1.09,1,2.43-1,3a220.22,220.22,0,0,1-34.16,6.34,83.44,83.44,0,0,1,15.55-13.25,2.68,2.68,0,0,0,1.48-3.08c-.92-4.58-1.7-9.19-2.47-13.8-.3-1.82-.93-2.08-2.4-.95-5.81,4.47-11.64,8.91-17,13.9-3.44,3.19-6.29,7-10.15,9.73a23.5,23.5,0,0,0-1-5c-2.54-6,.91-9.73,4.4-13.95,5.94-7.16,13.69-12.11,20.64-18,2-1.72,2.71-3.2,2.1-5.75a80.83,80.83,0,0,1-1.85-10.79c-.35-3.47-1.64-3.08-3.75-1.39-4.59,3.65-9,7.43-13.32,11.47-4,3.81-8.55,7.17-12.73,12.07-.54-5.14-2.07-9.3-1.81-13.76,3.45-3.56,6.8-7.23,10.37-10.66a171.8,171.8,0,0,1,16.49-14.24,3,3,0,0,0,1.39-3.45c-.75-4.05-1.53-8.09-2-12.17-.36-2.88-1-3.48-3.62-1.58C90.64,270.76,82.28,278.87,74.1,287.2Zm32.41-28.09c-.9,1-.51,2.09-.34,3.16.69,4.28,1.39,8.56,2.19,12.82.14.73-.29,2.22,1.1,2,1.13-.17.87-1.44.72-2.31-.77-4.62-1.59-9.23-2.4-13.83C107.64,260.18,107.54,259.36,106.51,259.11Zm8.13,41h-.07c-.38-2.25-.74-4.51-1.17-6.75-.11-.58.25-1.59-.79-1.56s-1.33.7-1.16,1.68c.81,4.61,1.59,9.23,2.38,13.85.13.78.46,1.3,1.34,1.13s.73-.95.62-1.6C115.41,304.59,115,302.33,114.64,300.08Zm3.82,29.26c-.54,3.68.46,7.07,1,10.51.1.68.12,1.9,1.32,1.31.91-.45,2.66-1.05,2-2.27A51.49,51.49,0,0,1,118.46,329.34Z"/><path class="cls-7" d="M74.1,287.2c8.18-8.33,16.54-16.44,26.06-23.28,2.64-1.9,3.26-1.3,3.62,1.58.52,4.08,1.3,8.12,2,12.17a3,3,0,0,1-1.39,3.45A171.8,171.8,0,0,0,88,295.36c-3.57,3.43-6.92,7.1-10.37,10.66Z"/><path class="cls-7" d="M84.89,351.17c3.86-2.74,6.71-6.54,10.15-9.73,5.39-5,11.22-9.43,17-13.9,1.47-1.13,2.1-.87,2.4.95.77,4.61,1.55,9.22,2.47,13.8a2.68,2.68,0,0,1-1.48,3.08,83.44,83.44,0,0,0-15.55,13.25c-4,1.19-8.1.85-12.11,1.62-1.34.26-1.58-1-1.75-2C85.68,355.86,85.28,353.51,84.89,351.17Z"/><path class="cls-6" d="M122,215.86c.67,3.5,0,4.35-3.44,4.4-20.53.28-40.55,3.4-59.91,10.45-1.42.52-3.32.86-4-1.31s-1.52-4.9,1.34-6.29a34.49,34.49,0,0,1,7.38-2.62,413.72,413.72,0,0,1,47.54-8.13,67.37,67.37,0,0,1,6.82-.14C120.37,212.19,121.75,213.57,122,215.86Z"/><path class="cls-6" d="M114.48,366.68c-10.94,1.86-20.5,3.47-30.21,3.88-2.84.12-5.54,0-6.36-3.61-.73-3.27.1-4.59,3.46-4.54,11.68.16,23.18-1.37,34.62-3.46a162.36,162.36,0,0,0,24.73-6.57c1.77-.62,3.53-1.47,4.65.92,1.28,2.73.69,5.42-1.69,6.45a46.47,46.47,0,0,1-7.75,2.61C128.37,364.11,120.79,365.79,114.48,366.68Z"/><path class="cls-6" d="M85.93,190.69a25.38,25.38,0,0,1,18.92,5.16c2.56,2,4.76,4.56,3.89,8.14s-4,5-7.4,5.64A24.47,24.47,0,0,1,82,205.11c-2.81-2.05-5.36-4.64-4.44-8.54S82,191.51,85.93,190.69Z"/><path class="cls-6" d="M96.51,374.71a22.62,22.62,0,0,1,16.07,6.51c1,1,2.06,2.31,1.49,3.93-.65,1.81-2.41,2-4,2.08A22.13,22.13,0,0,1,93.64,381c-1.18-1.12-2.22-2.48-1.53-4.23S94.41,375.09,96.51,374.71Z"/><path class="cls-7" d="M81,227.14,66.76,241.57c-.42-1.63-.92-3.25-1.23-4.9-1.09-5.87-1-5.77,4.46-7.35,2.59-.74,5-2.28,7.74-2.41C78.81,226.86,80,226.1,81,227.14Z"/><path class="cls-7" d="M106.51,259.11c1,.25,1.13,1.07,1.27,1.85.81,4.6,1.63,9.21,2.4,13.83.15.87.41,2.14-.72,2.31-1.39.21-1-1.28-1.1-2-.8-4.26-1.5-8.54-2.19-12.82C106,261.2,105.61,260.07,106.51,259.11Z"/><path class="cls-8" d="M114.64,300.08c.38,2.25.77,4.51,1.15,6.76.11.65.39,1.41-.62,1.6s-1.21-.35-1.34-1.13c-.79-4.62-1.57-9.24-2.38-13.85-.17-1,.2-1.66,1.16-1.68s.68,1,.79,1.56c.43,2.24.79,4.5,1.17,6.75Z"/><path class="cls-7" d="M118.46,329.34a51.49,51.49,0,0,0,4.26,9.55c.7,1.22-1,1.82-2,2.27-1.2.59-1.22-.63-1.32-1.31C118.92,336.41,117.92,333,118.46,329.34Z"/><path class="cls-8" d="M124.25,216.25c0,2.11.81,4.94-3,5.4-1,.13-.94.82-.87,1.51s.21,1.35.33,2q10.32,60.48,20.65,121c.32,1.88.31,3.66,3.17,3.79,2.44.11,2.91,2.53,3.28,4.6.46,2.62.36,5.31-2.3,6.57-2.13,1-2.45,2.52-2.86,4.48a31.1,31.1,0,0,1-17,22.28,4.7,4.7,0,0,0-2.78,3c-1.72,5.31-7.91,6.45-11.31,2.1A4.75,4.75,0,0,0,108,390.9a31.23,31.23,0,0,1-24.07-16.12,4,4,0,0,0-3.31-2.4c-3.35-.39-4.32-3-4.81-5.82-.44-2.53-.16-4.92,2.71-5.89,2-.66,1-2,.85-3.05C77.2,344.77,75,331.93,72.8,319.09q-7.06-41.4-14.11-82.82c-.32-1.92-.54-3.37-3.07-3.42s-3-2.31-3.36-4.17c-.45-2.45-.77-5.11,1.79-6.82a3.45,3.45,0,0,0,1.86-3.17c.52-13.06,6.5-22.78,18.29-28.66a2.45,2.45,0,0,0,1.53-2.59c.18-3.85,2.28-6.34,5.51-6.8a6.31,6.31,0,0,1,7.18,4.89c.3,1.27,1,1.5,2.12,1.65,13.16,1.71,22.24,8.67,26.93,21.2.36,1,.74,1.79,2,2C122.67,210.78,123.63,213.2,124.25,216.25ZM84.89,351.17c.39,2.34.79,4.69,1.16,7,.17,1.07.41,2.3,1.75,2,4-.77,8.16-.43,12.11-1.62a220.22,220.22,0,0,0,34.16-6.34c2.05-.53,1.19-1.87,1-3-.91-6.73-2.66-13.29-4-19.94a173.55,173.55,0,0,1-2.43-17.89c-.48-5.5-2.44-10.61-3.59-15.92-1.3-6-1.18-12.21-2.22-18.28-.77-4.5-2.18-8.82-3-13.29-1.48-7.63-1.46-15.45-3.24-23-.29-1.2-.11-3.4-1-3.41-2.4,0-3.65-2.45-5.93-2.32a3.81,3.81,0,0,0-3.26,2.15,11.46,11.46,0,0,0-1.27,4.23c-.12.89-.16,2.15-1.23,2.17s-1.18-1.12-1.36-2.06c-.75-3.81-1.56-7.61-2.36-11.41-.14-.63-.65-1.32.3-1.71,2.17-.9,3.14-3.6,5.76-3.8.79-.06,1.52-.58,1.39-1.2-.18-.81-1.1-.86-1.92-.76-4.87.62-9.77,1.06-14.61,1.87-3.44.58-7.08.51-10.23,2.41-1-1-2.14-.28-3.22-.23-2.79.13-5.15,1.67-7.74,2.41-5.49,1.58-5.55,1.48-4.46,7.35.31,1.65.81,3.27,1.23,4.9-.54,4.57,1.16,8.76,1.62,13.92a171.48,171.48,0,0,1,29.66-26,113.6,113.6,0,0,0,2.17,15.64,3.76,3.76,0,0,1-1.69,4.26,194.46,194.46,0,0,0-24.8,22.95c-1,1.05-2.15,2-1.74,3.81.81,3.67,1.42,7.38,2.12,11.08L77.58,306c-.26,4.46,1.27,8.62,1.81,13.76,4.18-4.9,8.69-8.26,12.73-12.07,4.29-4,8.73-7.82,13.32-11.47,2.11-1.69,3.4-2.08,3.75,1.39A80.83,80.83,0,0,0,111,308.42c.61,2.55-.09,4-2.1,5.75-7,5.92-14.7,10.87-20.64,18-3.49,4.22-6.94,7.94-4.4,13.95A23.5,23.5,0,0,1,84.89,351.17ZM122,215.86c-.26-2.29-1.64-3.67-4.26-3.64a67.37,67.37,0,0,0-6.82.14,413.72,413.72,0,0,0-47.54,8.13A34.49,34.49,0,0,0,56,223.11c-2.86,1.39-2.06,4-1.34,6.29s2.57,1.83,4,1.31C78,223.66,98,220.54,118.57,220.26,122,220.21,122.68,219.36,122,215.86Zm-7.53,150.82c6.31-.89,13.89-2.57,21.45-4.32a46.47,46.47,0,0,0,7.75-2.61c2.38-1,3-3.72,1.69-6.45-1.12-2.39-2.88-1.54-4.65-.92A162.36,162.36,0,0,1,116,359c-11.44,2.09-22.94,3.62-34.62,3.46-3.36-.05-4.19,1.27-3.46,4.54.82,3.65,3.52,3.73,6.36,3.61C94,370.15,103.54,368.54,114.48,366.68Zm-28.55-176c-3.89.82-7.42,1.84-8.38,5.88s1.63,6.49,4.44,8.54a24.47,24.47,0,0,0,19.35,4.52c3.37-.6,6.5-1.94,7.4-5.64s-1.33-6.13-3.89-8.14A25.38,25.38,0,0,0,85.93,190.69Zm10.58,184c-2.1.38-3.75.43-4.4,2s.35,3.11,1.53,4.23a22.13,22.13,0,0,0,16.45,6.25c1.57-.05,3.33-.27,4-2.08.57-1.62-.45-2.92-1.49-3.93A22.62,22.62,0,0,0,96.51,374.71Z"/></g><g id="Spice_scissors"><text class="cls-9" transform="translate(139.9 341.32) scale(1.27 1)"><tspan xml:space="preserve">S  ice</tspan></text><path class="cls-10" d="M302.19,277.12c-4.75-13.64-20.52,23.25-33.15,13.38-18-11-45.7,9.54-48.52,29-3.12,13.68-7.68,26.82-18.86,36.2-12.76,9.64-27.68,15-42.08,22.34-5.31-9.85-10.93-19.63-15.93-29.71-14.73-30.21,18.73-50-8.41-79.85-7.72-8.84-19-12.15-27.95-8.3-24.55,11.21-15,50.18,5.87,60.63,10.42,6.16,17,15.58,18.91,26.88,3.29,19.17,4.92,38.62,7,58,.19,1.85-1.34,3.88-2.06,5.82l.11-.06c-26.35,35.22-50.19,72.22-74.65,108.75-3.07,4.63-5,10-7,15.3-.72,1.94.13,4.45.27,6.7,30-28.7,56.55-69.38,86.25-103.08,3.69,44.81,7.28,88.28,10.88,131.91,4.65-.32,5.7-3.47,6-6.34,1.08-9.21,2.39-18.47,2.4-27.71.05-39.13-.37-78.27-.49-117.4a9.75,9.75,0,0,1,1.88-5.72c9.69-12.15,19.24-24.44,29.56-36,3.91-4.39,9.81-6.95,14.63-10.57,14.91-8.83,13.4-22.15,34.14-21.31,22.37,1.14,43.3-20.79,38.6-43.2,0-1.29.15-3.21,1-3.8C285.05,295.75,297,280.49,302.19,277.12Zm-200.37-3c-3.37,9.89-1.45,19.31,2.88,28.5C98.37,296,97,283,101.82,274.12Zm33.48,27.42c-1.58,9.95-11,13.81-19.4,8.24-9-5.93-14.21-19.09-11.71-29.44,2.56-10.55,12.36-13.93,20.64-6.91C133.49,280.78,137.09,290.31,135.3,301.54ZM123.32,437c-17.39,25.75-34.93,51.41-52.94,76.73l-.72-.45c15.81-27.34,34.87-52.67,53.15-78.4,3.24-4.51,6.14-5.24,11-3.22C129,430.87,125.91,433.13,123.32,437Zm29.54,118.42-7.53-103.81,1.71-.13q3.81,51.92,7.6,103.83ZM150.7,410.74c-6.1,0-6.1-9.31,0-9.34S156.81,410.71,150.7,410.74ZM263,295c-14.14-.28-20.93,3.66-32.57,18.22C234.38,300.69,252.7,290.56,263,295Zm-47.77,63a19.23,19.23,0,0,1-12.56,7.59c7.83-2.56,11.6-9.29,16.31-15.14,2.12-2.63,5.2-4.49,8.59-7.32C222.9,348.73,219,353.3,215.21,358Zm25.58-23a11,11,0,0,1-9.64-11.76c1-13.83,15.59-26,28.94-24.19,6.38,1.69,9.42,5.83,9.33,11.75C269.24,323.51,253.42,336.87,240.79,335Z"/></g></symbol></defs><g id="Layer_2" data-name="Layer 2"><g id="Layer_1-2" data-name="Layer 1"><use width="466.58" height="571.29" xlink:href="#Sugar_Ann_Spice_1.0"/></g></g></svg>