<svg xmlns="http://www.w3.org/2000/svg" xmlns:xlink="http://www.w3.org/1999/xlink" viewBox="0 0 480.13 497.95"><defs><style>.cls-1{font-size:45px;font-family:Authenia-Regular, Authenia;}.cls-2,.cls-3{stroke:#392470;stroke-width:0.41px;}.cls-2,.cls-3,.cls-4,.cls-5,.cls-6,.cls-7,.cls-8{stroke-miterlimit:10;}.cls-2{fill:url(#radial-gradient);}.cls-3{fill:url(#radial-gradient-2);}.cls-4{fill:#f3f1f1;}.cls-4,.cls-5,.cls-6,.cls-7{stroke:#231f20;stroke-width:1px;}.cls-5{fill:#fff7eb;}.cls-6{fill:#d72b29;}.cls-7{fill:#2f406a;}.cls-8{fill:#3e3630;stroke:#c5c7c9;stroke-width:0.39px;}.cls-9{font-size:48px;font-family:Sketch, Sketch ;}.cls-10{fill:none;}</style><radialGradient id="radial-gradient" cx="164.36" cy="204.75" r="0.05" gradientUnits="userSpaceOnUse"><stop offset="0" stop-color="#fff"/><stop offset="0.45" stop-color="#d72b29"/></radialGradient><radialGradient id="radial-gradient-2" cx="191.09" cy="158.05" r="0" xlink:href="#radial-gradient"/><symbol id="Sugar_Ann_Spice_Tagline2" data-name="Sugar_Ann_Spice_Tagline2" viewBox="0 0 480.81 497.38"><text class="cls-1" transform="matrix(0.93, -0.86, 0.68, 0.73, 153.51, 140.69)">K</text><text class="cls-1" transform="translate(170.85 124.96) rotate(-33.56) scale(1.27 1)">e</text><text class="cls-1" transform="matrix(1.14, -0.55, 0.44, 0.9, 183.62, 116.36)">e</text><text class="cls-1" transform="translate(198.41 109.09) rotate(-18.09) scale(1.27 1)">p</text><text class="cls-1" transform="matrix(1.24, -0.26, 0.21, 0.98, 214.23, 104.08)"> </text><text class="cls-1" transform="translate(223.78 102.01) rotate(-6.9) scale(1.27 1)">i</text><text class="cls-1" transform="translate(234.79 100.57) rotate(-1.1) scale(1.27 1)">t</text><text class="cls-1" transform="matrix(1.27, 0.1, -0.08, 1, 248.27, 100.37)"> </text><text class="cls-1" transform="translate(257.72 100.41) rotate(12.73) scale(1.27 1)">S</text><text class="cls-1" transform="translate(282.04 106.02) rotate(23.09) scale(1.27 1)">a</text><text class="cls-1" transform="matrix(1.09, 0.65, -0.51, 0.86, 299.81, 113.78)">s</text><text class="cls-1" transform="matrix(1.02, 0.76, -0.6, 0.8, 310.6, 120.13)">s</text><text class="cls-1" transform="matrix(0.92, 0.88, -0.69, 0.72, 320.67, 127.31)">y</text><text class="cls-1" transform="translate(333.14 139.23) rotate(51.23) scale(1.27 1)">!</text><path class="cls-2" d="M164.32,204.8v-.1h.08Z"/><polygon class="cls-3" points="191.09 158.06 191.09 158.05 191.1 158.05 191.09 158.06"/><g id="Barber_pole"><path class="cls-4" d="M184.65,175.11c-1.08-2.91-2.41-5.14-5.6-5.07-1.29,0-1.8-.71-2.31-1.61-6.59-11.59-16.63-17-29.85-16.63-1.18,0-1.86-.09-2.35-1.29a6.3,6.3,0,0,0-7.84-3.68c-3.11,1-4.78,3.75-4.35,7.56a2.44,2.44,0,0,1-1.1,2.79c-10.68,7.65-15,18.16-13.49,31.1a3.47,3.47,0,0,1-1.33,3.42c-2.25,2.08-1.51,4.65-.68,7,.62,1.78,1.55,3.91,4,3.57s3,1,3.57,2.88q13.42,39.67,26.94,79.31,6.28,18.45,12.53,36.9c.34,1,1.49,2.18-.35,3.14-2.68,1.4-2.58,3.8-1.75,6.22.93,2.7,2.29,5.12,5.66,5a4.28,4.28,0,0,1,3.47,1.63c6.76,8.44,15.61,12.59,26.4,12.28a4.75,4.75,0,0,1,3.83,1.48c4,3.74,9.94,1.65,10.79-3.85a4.69,4.69,0,0,1,2.28-3.4,31,31,0,0,0,13.25-24.62c.1-2,.18-3.54,2.11-4.86,2.43-1.66,2.09-4.32,1.23-6.83-.69-2-1.54-4.3-4-4-2.83.33-3.1-1.43-3.71-3.22l-39.4-115.83c-.22-.65-.47-1.29-.64-2s-.35-1.33.61-1.61C186.23,179.85,185,177.19,184.65,175.11Z"/><path class="cls-5" d="M146.47,252.86c-1.27-3.53-2.46-7.09-3.84-10.57-.68-1.75.35-2.84,1.12-4a193.62,193.62,0,0,1,20.79-26.5c1.34-1.44,1.69-2.6,1-4.46a113,113,0,0,1-4.59-15.05,170.75,170.75,0,0,0-25.1,30.29c-1.27-5-3.6-8.86-3.79-13.44l11.69-16.44c2.8-2.37,6.4-2.87,9.7-4,4.63-1.57,9.39-2.76,14.08-4.14.79-.23,1.71-.33,2,.44.23.59-.41,1.22-1.18,1.4-2.54.61-3.08,3.42-5.06,4.64-.88.54-.27,1.14,0,1.74,1.4,3.62,2.79,7.23,4.13,10.87.33.88.71,2,1.67,1.81s.89-1.44.86-2.33a11.4,11.4,0,0,1,.59-4.37,3.79,3.79,0,0,1,2.86-2.63c2.23-.49,3.84,1.7,6.21,1.35.83-.13,1,2.07,1.47,3.21,3,7.17,4.17,14.87,6.82,22.15,1.56,4.26,3.63,8.29,5.1,12.6,2,5.81,2.83,11.9,5.07,17.64,2,5.06,4.71,9.78,6.05,15.11a169.3,169.3,0,0,0,5.2,17.24c2.33,6.34,5.09,12.52,7.05,19,.32,1.06,1.38,2.23-.56,3.07a219.56,219.56,0,0,1-32.63,11.64,83.3,83.3,0,0,1,13.21-15.5,2.65,2.65,0,0,0,1-3.26c-1.63-4.37-3.13-8.78-4.6-13.2-.59-1.75-1.25-1.9-2.52-.56-5,5.32-10.06,10.61-14.58,16.37-2.88,3.68-5.09,7.87-8.45,11.18a24.18,24.18,0,0,0-1.76-4.79c-3.46-5.51-.65-9.72,2.13-14.42,4.71-8,11.56-14.09,17.47-21,1.7-2,2.16-3.57,1.16-6a80.58,80.58,0,0,1-3.52-10.33c-.89-3.36-2.1-2.77-3.91-.78-3.95,4.32-7.72,8.74-11.3,13.39-3.38,4.39-7.3,8.41-10.63,13.89-1.35-5-3.51-8.83-3.95-13.26,2.83-4,5.55-8.19,8.52-12.13a173.46,173.46,0,0,1,14-16.62,3,3,0,0,0,.82-3.61c-1.37-3.87-2.77-7.73-3.93-11.66-.81-2.78-1.51-3.27-3.81-1C160.16,234.08,153.2,243.37,146.47,252.86Zm27.47-32.76c-.73,1.08-.16,2.14.17,3.16,1.36,4.11,2.72,8.21,4.18,12.28.25.7.07,2.23,1.4,1.81,1.08-.35.63-1.56.35-2.4-1.5-4.42-3-8.82-4.55-13.23C175.23,221,175,220.18,173.94,220.1Zm14.47,39-.06,0c-.74-2.15-1.45-4.32-2.22-6.46-.2-.55,0-1.6-1-1.41s-1.19.9-.87,1.83q2.28,6.63,4.52,13.27c.25.74.66,1.2,1.5.9s.57-1.05.36-1.67Zm8.37,28.21c.05,3.7,1.57,6.88,2.62,10.19.21.65.42,1.85,1.52,1.08.82-.59,2.45-1.45,1.57-2.55A51,51,0,0,1,196.78,287.36Z"/><path class="cls-6" d="M146.47,252.86c6.73-9.49,13.69-18.78,22-27,2.3-2.29,3-1.8,3.81,1,1.16,3.93,2.56,7.79,3.93,11.66a3,3,0,0,1-.82,3.61,173.46,173.46,0,0,0-14,16.62c-3,3.94-5.69,8.08-8.52,12.13Q149.66,261.86,146.47,252.86Z"/><path class="cls-6" d="M167.18,314.14c3.36-3.31,5.57-7.5,8.45-11.18,4.52-5.76,9.56-11,14.58-16.37,1.27-1.34,1.93-1.19,2.52.56,1.47,4.42,3,8.83,4.6,13.2a2.65,2.65,0,0,1-1,3.26,83.3,83.3,0,0,0-13.21,15.5c-3.7,1.79-7.84,2.11-11.67,3.5-1.27.47-1.71-.7-2-1.73C168.69,318.63,167.93,316.39,167.18,314.14Z"/><path class="cls-5" d="M182.39,175.07c1.21,3.34.65,4.29-2.7,4.88-20.16,3.51-39.38,9.74-57.32,19.74-1.33.73-3.14,1.36-4.15-.66s-2.26-4.59.33-6.41a34.06,34.06,0,0,1,6.86-3.74,410,410,0,0,1,45.52-15.51c2.18-.59,4.46-.83,6.69-1.21C180.19,171.72,181.77,172.86,182.39,175.07Z"/><path class="cls-5" d="M198.75,324.74c-10.47,3.56-19.63,6.65-29.13,8.59-2.77.56-5.44.91-6.82-2.56-1.24-3.1-.63-4.53,2.68-5,11.53-1.68,22.61-5,33.54-8.86a161.89,161.89,0,0,0,23.31-10.37c1.65-.9,3.24-2,4.73.17,1.69,2.48,1.53,5.23-.65,6.61a45.21,45.21,0,0,1-7.22,3.8C212,320,204.83,322.88,198.75,324.74Z"/><path class="cls-5" d="M142.9,156a25.31,25.31,0,0,1,19.44,2.1c2.84,1.58,5.4,3.74,5.11,7.4s-3.17,5.6-6.39,6.72a24.41,24.41,0,0,1-19.77-1.39c-3.09-1.59-6-3.73-5.71-7.71C135.88,159,139.2,157.41,142.9,156Z"/><path class="cls-5" d="M182.33,335.48a22.57,22.57,0,0,1,16.85,3.88c1.18.83,2.39,1.94,2.08,3.63-.35,1.89-2,2.38-3.59,2.68a22.08,22.08,0,0,1-17.18-3.57c-1.34-.9-2.58-2.09-2.17-3.91S180.32,336.18,182.33,335.48Z"/><path class="cls-6" d="M143.74,192.66,132.05,209.1c-.67-1.54-1.42-3.06-2-4.63-2-5.61-1.93-5.52,3.23-7.94,2.43-1.14,4.51-3,7.24-3.59C141.59,192.72,142.59,191.79,143.74,192.66Z"/><path class="cls-6" d="M173.94,220.1c1.07.08,1.29.88,1.55,1.62,1.52,4.41,3,8.81,4.55,13.23.28.84.73,2.05-.35,2.4-1.33.42-1.15-1.11-1.4-1.81-1.46-4.07-2.82-8.17-4.18-12.28C173.78,222.24,173.21,221.18,173.94,220.1Z"/><path class="cls-7" d="M188.41,259.15l2.2,6.48c.21.62.61,1.32-.36,1.67s-1.25-.16-1.5-.9q-2.25-6.63-4.52-13.27c-.32-.93-.06-1.66.87-1.83s.83.86,1,1.41c.77,2.14,1.48,4.31,2.22,6.46Z"/><path class="cls-6" d="M196.78,287.36a51,51,0,0,0,5.71,8.72c.88,1.1-.75,2-1.57,2.55-1.1.77-1.31-.43-1.52-1.08C198.35,294.24,196.83,291.06,196.78,287.36Z"/><path class="cls-7" d="M184.65,175.11c.33,2.08,1.58,4.74-2.09,5.79-1,.28-.79.95-.61,1.61s.42,1.3.64,2L222,300.29c.61,1.79.88,3.55,3.71,3.22,2.42-.28,3.27,2,4,4,.86,2.51,1.2,5.17-1.23,6.83-1.93,1.32-2,2.86-2.11,4.86a31,31,0,0,1-13.25,24.62,4.69,4.69,0,0,0-2.28,3.4c-.85,5.5-6.76,7.59-10.79,3.85a4.75,4.75,0,0,0-3.83-1.48,31.12,31.12,0,0,1-26.24-12.07,4,4,0,0,0-3.63-1.84c-3.37.14-4.73-2.28-5.66-5-.83-2.42-.93-4.82,1.75-6.22,1.84-1,.69-2.13.35-3.14q-6.21-18.47-12.53-36.9-13.49-39.65-26.94-79.31c-.62-1.83-1.07-3.23-3.57-2.88s-3.33-1.79-4-3.57c-.83-2.35-1.57-4.92.68-7a3.47,3.47,0,0,0,1.33-3.42c-1.54-12.94,2.81-23.45,13.49-31.1a2.44,2.44,0,0,0,1.1-2.79c-.43-3.81,1.24-6.59,4.35-7.56a6.3,6.3,0,0,1,7.84,3.68c.49,1.2,1.17,1.33,2.35,1.29,13.22-.39,23.26,5,29.85,16.63.51.9,1,1.64,2.31,1.61C182.24,170,183.57,172.2,184.65,175.11Zm-17.47,139c.75,2.25,1.51,4.49,2.25,6.74.33,1,.77,2.2,2,1.73,3.83-1.39,8-1.71,11.67-3.5a219.56,219.56,0,0,0,32.63-11.64c1.94-.84.88-2,.56-3.07-2-6.48-4.72-12.66-7.05-19a169.3,169.3,0,0,1-5.2-17.24c-1.34-5.33-4.08-10.05-6.05-15.11-2.24-5.74-3.09-11.83-5.07-17.64-1.47-4.31-3.54-8.34-5.1-12.6-2.65-7.28-3.87-15-6.82-22.15-.47-1.14-.64-3.34-1.47-3.21-2.37.35-4-1.84-6.21-1.35a3.79,3.79,0,0,0-2.86,2.63,11.4,11.4,0,0,0-.59,4.37c0,.89.18,2.14-.86,2.33s-1.34-.93-1.67-1.81c-1.34-3.64-2.73-7.25-4.13-10.87-.23-.6-.84-1.2,0-1.74,2-1.22,2.52-4,5.06-4.64.77-.18,1.41-.81,1.18-1.4-.3-.77-1.22-.67-2-.44-4.69,1.38-9.45,2.57-14.08,4.14-3.3,1.12-6.9,1.62-9.7,4-1.15-.87-2.15.06-3.2.28-2.73.56-4.81,2.45-7.24,3.59-5.16,2.42-5.23,2.33-3.23,7.94.56,1.57,1.31,3.09,2,4.63.19,4.58,2.52,8.44,3.79,13.44a170.75,170.75,0,0,1,25.1-30.29,113,113,0,0,0,4.59,15.05c.7,1.86.35,3-1,4.46a193.62,193.62,0,0,0-20.79,26.5c-.77,1.19-1.8,2.28-1.12,4,1.38,3.48,2.57,7,3.84,10.57l6.4,18c.44,4.43,2.6,8.29,3.95,13.26,3.33-5.48,7.25-9.5,10.63-13.89,3.58-4.65,7.35-9.07,11.3-13.39,1.81-2,3-2.58,3.91.78a80.58,80.58,0,0,0,3.52,10.33c1,2.42.54,4-1.16,6-5.91,6.92-12.76,13-17.47,21-2.78,4.7-5.59,8.91-2.13,14.42A24.18,24.18,0,0,1,167.18,314.14Zm15.21-139.07c-.62-2.21-2.2-3.35-4.77-2.91-2.23.38-4.51.62-6.69,1.21a410,410,0,0,0-45.52,15.51,34.06,34.06,0,0,0-6.86,3.74c-2.59,1.82-1.4,4.24-.33,6.41s2.82,1.39,4.15.66c17.94-10,37.16-16.23,57.32-19.74C183,179.36,183.6,178.41,182.39,175.07Zm16.36,149.67c6.08-1.86,13.27-4.72,20.44-7.63a45.21,45.21,0,0,0,7.22-3.8c2.18-1.38,2.34-4.13.65-6.61-1.49-2.18-3.08-1.07-4.73-.17A161.89,161.89,0,0,1,199,316.9c-10.93,3.86-22,7.18-33.54,8.86-3.31.48-3.92,1.91-2.68,5,1.38,3.47,4,3.12,6.82,2.56C179.12,331.39,188.28,328.3,198.75,324.74ZM142.9,156c-3.7,1.43-7,3-7.32,7.12-.3,4,2.62,6.12,5.71,7.71a24.41,24.41,0,0,0,19.77,1.39c3.22-1.12,6.09-2.93,6.39-6.72s-2.27-5.82-5.11-7.4A25.31,25.31,0,0,0,142.9,156Zm39.43,179.5c-2,.7-3.63,1-4,2.71s.83,3,2.17,3.91a22.08,22.08,0,0,0,17.18,3.57c1.54-.3,3.24-.79,3.59-2.68.31-1.69-.9-2.8-2.08-3.63A22.57,22.57,0,0,0,182.33,335.48Z"/></g><path class="cls-8" d="M394.4,159.14c-2.8-11-17.57,16.78-26.77,8.24-13.35-9.81-36.33,4.4-39.83,19.43-3.35,10.48-7.78,20.44-17.14,27-10.61,6.68-22.62,9.85-34.35,14.65-3.5-8-7.23-16.06-10.46-24.27-9.5-24.57,17.95-37.79-1.26-62.92-5.44-7.42-14-10.75-21.27-8.34-19.93,7.12-15,38.19.55,47.74a30,30,0,0,1,13,22.25c1.29,15.19,1.26,30.49,1.6,45.75,0,1.46-1.31,2.94-2,4.41l.09,0c-22.93,25.75-44,53.06-65.55,80-2.7,3.41-4.61,7.51-6.47,11.49-.69,1.46-.19,3.48-.24,5.25,25.36-20.42,48.79-50.43,74.22-74.77-.09,35.25-.18,69.43-.28,103.74,3.65.07,4.69-2.33,5.14-4.54,1.45-7.12,3.09-14.27,3.71-21.48,2.64-30.56,4.93-61.15,7.44-91.73a7.65,7.65,0,0,1,1.84-4.34c8.38-8.84,16.66-17.8,25.49-26.17,3.34-3.16,8.12-4.78,12.13-7.28,12.23-5.9,11.94-16.4,28.07-14.37,17.41,2.38,35.21-13.36,33-31.17.06-1,.33-2.5,1-2.91C379.78,172.54,390.13,161.42,394.4,159.14ZM238.12,143.45c-3.29,7.51-2.42,15,.35,22.46C234,160.34,233.73,150,238.12,143.45Zm24.32,23.65c-1.9,7.67-9.48,10.05-15.7,5.14-6.62-5.23-9.83-15.85-7.18-23.77,2.69-8.07,10.58-10.06,16.57-4C262.41,150.77,264.59,158.44,262.44,167.1Zm-18.37,105c-15.3,19-30.7,37.82-46.45,56.4l-.53-.4c14.17-20.3,30.73-38.81,46.73-57.69,2.82-3.3,5.14-3.69,8.83-1.78C248.9,267.69,246.35,269.24,244.07,272.07Zm15.19,94.45q.51-40.78,1-81.58l1.34,0q-.48,40.8-1,81.6Zm7.94-113.11c-4.77-.43-4.15-7.68.62-7.3S272,253.79,267.2,253.41Zm95.39-82.93c-11-1.16-16.59,1.47-26.65,12.06C339.88,173,354.86,166.33,362.59,170.48Zm-41.5,46.05a15.05,15.05,0,0,1-10.32,5.1c6.29-1.48,9.68-6.48,13.75-10.74,1.83-1.92,4.36-3.16,7.19-5.15C327.72,209.79,324.33,213.09,321.09,216.53Zm21.51-16.28a8.61,8.61,0,0,1-6.75-9.83c1.7-10.74,13.91-19.24,24.22-17,4.87,1.74,7,5.17,6.5,9.79C365.58,193.17,352.34,202.55,342.6,200.25Z"/><text class="cls-9" transform="matrix(-0.1, 1.27, -1, -0.08, 63.53, 187.56)">S</text><text class="cls-9" transform="translate(61.41 231.52) rotate(83.07) scale(1.27 1)">u</text><text class="cls-9" transform="translate(65.05 258.63) rotate(74.62) scale(1.27 1)">g</text><text class="cls-9" transform="translate(72.28 283.72) rotate(66.53) scale(1.27 1)">a</text><text class="cls-9" transform="translate(82.51 306.5) rotate(59.05) scale(1.27 1)">r</text><text class="cls-9" transform="matrix(0.78, 1, -0.79, 0.61, 94.3, 325.72)"> </text><text class="cls-9" transform="matrix(0.97, 0.82, -0.65, 0.76, 108.66, 345.55)">A</text><text class="cls-9" transform="matrix(1.13, 0.59, -0.46, 0.89, 149.73, 377.67)">n</text><text class="cls-9" transform="matrix(1.2, 0.42, -0.33, 0.94, 173.32, 389.63)">n</text><text class="cls-9" transform="matrix(1.24, 0.26, -0.2, 0.98, 198.06, 397.86)"> </text><text class="cls-9" transform="translate(221.08 403.08) rotate(1.27) scale(1.27 1)">S</text><text class="cls-9" transform="translate(266.84 402.51) rotate(-10.63) scale(1.27 1)">p</text><text class="cls-9" transform="translate(292.06 397.3) rotate(-17.21) scale(1.27 1)">i</text><text class="cls-9" transform="translate(307.07 392.66) rotate(-23.12) scale(1.27 1)">c</text><text class="cls-9" transform="matrix(1.1, -0.64, 0.5, 0.86, 327.59, 383.68)">e</text><text class="cls-9" transform="matrix(1.01, -0.77, 0.6, 0.8, 347.53, 371.76)"> </text><text class="cls-9" transform="matrix(0.85, -0.94, 0.74, 0.67, 366.6, 357.81)">S</text><text class="cls-9" transform="translate(395.06 324.44) rotate(-58.9) scale(1.27 1)">a</text><text class="cls-9" transform="matrix(0.54, -1.15, 0.91, 0.42, 407.23, 303.46)">l</text><text class="cls-9" transform="translate(413.41 290.36) rotate(-70.82) scale(1.27 1)">o</text><text class="cls-9" transform="translate(421.03 267.9) rotate(-78.61) scale(1.27 1)">n</text><circle class="cls-10" cx="244.23" cy="220.87" r="141.95"/></symbol></defs><g id="Layer_2" data-name="Layer 2"><g id="Layer_1-2" data-name="Layer 1"><use width="480.8" height="497.38" transform="translate(-0.04 0.01)" xlink:href="#Sugar_Ann_Spice_Tagline2"/></g></g></svg>